<?xml version="1.0" encoding="UTF-8" standalone="no"?>
<svg
   xmlns:dc="http://purl.org/dc/elements/1.1/"
   xmlns:cc="http://creativecommons.org/ns#"
   xmlns:rdf="http://www.w3.org/1999/02/22-rdf-syntax-ns#"
   xmlns:svg="http://www.w3.org/2000/svg"
   xmlns="http://www.w3.org/2000/svg"
   xmlns:sodipodi="http://sodipodi.sourceforge.net/DTD/sodipodi-0.dtd"
   xmlns:inkscape="http://www.inkscape.org/namespaces/inkscape"
   viewBox="0 0 2304 2304"
   version="1.1"
   id="svg49"
   sodipodi:docname="obbackup.svg"
   inkscape:version="0.92.2 2405546, 2018-03-11"
   width="48"
   height="48">
  <metadata
     id="metadata53">
    <rdf:RDF>
      <cc:Work
         rdf:about="">
        <dc:format>image/svg+xml</dc:format>
        <dc:type
           rdf:resource="http://purl.org/dc/dcmitype/StillImage" />
        <dc:title></dc:title>
      </cc:Work>
    </rdf:RDF>
  </metadata>
  <sodipodi:namedview
     pagecolor="#ffffff"
     bordercolor="#666666"
     borderopacity="1"
     objecttolerance="10"
     gridtolerance="10"
     guidetolerance="10"
     inkscape:pageopacity="0"
     inkscape:pageshadow="2"
     inkscape:window-width="1315"
     inkscape:window-height="816"
     id="namedview51"
     showgrid="false"
     inkscape:zoom="7.9240506"
     inkscape:cx="27.5"
     inkscape:cy="18.452077"
     inkscape:window-x="141"
     inkscape:window-y="134"
     inkscape:window-maximized="0"
     inkscape:current-layer="svg49"
     inkscape:snap-global="false"
     units="px" />
  <defs
     id="defs7">
    <linearGradient
       id="linearGradient3764"
       x1="1"
       x2="47"
       gradientUnits="userSpaceOnUse"
       gradientTransform="rotate(-90,23.999998,24)">
      <stop
         style="stop-color:#e4e4e4;stop-opacity:1"
         id="stop2" />
      <stop
         offset="1"
         style="stop-color:#eee;stop-opacity:1"
         id="stop4" />
    </linearGradient>
    <linearGradient
       id="linearGradient3764-3"
       x1="1"
       x2="47"
       gradientUnits="userSpaceOnUse"
       gradientTransform="rotate(-90,23.999998,24)">
      <stop
         style="stop-color:#e4e4e4;stop-opacity:1"
         id="stop2-6" />
      <stop
         offset="1"
         style="stop-color:#eee;stop-opacity:1"
         id="stop4-7" />
    </linearGradient>
  </defs>
  <g
     id="g15"
     transform="scale(48)">
    <path
       d="m 36.31,5 c 5.859,4.062 9.688,10.831 9.688,18.5 0,12.426 -10.07,22.5 -22.5,22.5 -7.669,0 -14.438,-3.828 -18.5,-9.688 1.037,1.822 2.306,3.499 3.781,4.969 4.085,3.712 9.514,5.969 15.469,5.969 12.703,0 23,-10.298 23,-23 0,-5.954 -2.256,-11.384 -5.969,-15.469 C 39.81,7.306 38.132,6.037 36.31,5 Z m 4.969,3.781 c 3.854,4.113 6.219,9.637 6.219,15.719 0,12.703 -10.297,23 -23,23 -6.081,0 -11.606,-2.364 -15.719,-6.219 4.16,4.144 9.883,6.719 16.219,6.719 12.703,0 23,-10.298 23,-23 0,-6.335 -2.575,-12.06 -6.719,-16.219 z"
       style="opacity:0.05"
       id="path9"
       inkscape:connector-curvature="0" />
    <path
       d="m 41.28,8.781 c 3.712,4.085 5.969,9.514 5.969,15.469 0,12.703 -10.297,23 -23,23 -5.954,0 -11.384,-2.256 -15.469,-5.969 4.113,3.854 9.637,6.219 15.719,6.219 12.703,0 23,-10.298 23,-23 0,-6.081 -2.364,-11.606 -6.219,-15.719 z"
       style="opacity:0.1"
       id="path11"
       inkscape:connector-curvature="0" />
    <path
       d="M 31.25,2.375 C 39.865,5.529 46,13.792 46,23.505 c 0,12.426 -10.07,22.5 -22.5,22.5 -9.708,0 -17.971,-6.135 -21.12,-14.75 a 23,23 0 0 0 44.875,-7 23,23 0 0 0 -16,-21.875 z"
       style="opacity:0.2"
       id="path13"
       inkscape:connector-curvature="0" />
  </g>
  <g
     id="g19"
     style="fill:#00aaaa;fill-opacity:1"
     transform="scale(48)">
    <path
       d="M 24,1 C 36.703,1 47,11.297 47,24 47,36.703 36.703,47 24,47 11.297,47 1,36.703 1,24 1,11.297 11.297,1 24,1 Z"
       style="fill:#00aaaa;fill-opacity:1"
       id="path17"
       inkscape:connector-curvature="0" />
  </g>
  <g
     id="g47"
     transform="scale(48)">
    <path
       d="m 40.03,7.531 c 3.712,4.084 5.969,9.514 5.969,15.469 0,12.703 -10.297,23 -23,23 C 17.045,46 11.615,43.744 7.53,40.031 11.708,44.322 17.54,47 23.999,47 c 12.703,0 23,-10.298 23,-23 0,-6.462 -2.677,-12.291 -6.969,-16.469 z"
       style="opacity:0.1"
       id="path45"
       inkscape:connector-curvature="0" />
  </g>
  <path
     inkscape:connector-curvature="0"
     id="rect930-5-2-2-3"
     style="opacity:0.1;fill:#000000;fill-opacity:1;stroke:none;stroke-width:51.7103157;stroke-miterlimit:4;stroke-dasharray:none"
     d="m 913.49597,1343.3391 h 560.49053 c 22.279,0 40.2146,17.9353 40.2146,40.2107 v 103.0528 c 0,22.2753 -17.9356,40.2161 -40.2146,40.2161 H 913.49597 c -22.27888,0 -40.21462,-17.9408 -40.21462,-40.2161 v -103.0528 c 0,-22.2754 17.93574,-40.2107 40.21462,-40.2107 z m 0,-484.25949 h 560.49053 c 22.279,0 40.2146,17.93533 40.2146,40.21613 v 103.04736 c 0,22.2808 -17.9356,40.2161 -40.2146,40.2161 H 913.49597 c -22.27888,0 -40.21462,-17.9353 -40.21462,-40.2161 V 899.29574 c 0,-22.2808 17.93574,-40.21613 40.21462,-40.21613 z m 0,242.12969 h 560.49053 c 22.279,0 40.2146,17.9354 40.2146,40.2107 v 103.0528 c 0,22.2808 -17.9356,40.2162 -40.2146,40.2162 H 913.49597 c -22.27888,0 -40.21462,-17.9354 -40.21462,-40.2162 V 1141.42 c 0,-22.2753 17.93574,-40.2107 40.21462,-40.2107 z M 1172.6328,365.59769 A 828.1213,828.1213 0 0 0 608.16816,607.63973 828.1213,828.1213 0 0 0 547.8346,1709.9092 L 677.94076,1579.8027 A 645.37938,645.37938 0 0 1 737.3767,736.84755 645.37938,645.37938 0 0 1 1487.6568,620.20488 l -96.8656,96.89353 H 1741.368 V 366.49637 L 1622.0064,485.88442 A 828.1213,828.1213 0 0 0 1172.6328,365.59769 Z m 667.0152,310.91744 -130.1061,130.10651 a 645.37938,645.37938 0 0 1 -59.4359,842.95516 645.37938,645.37938 0 0 1 -754.41478,114.5713 l 99.6675,-99.6663 H 644.75465 V 2015.062 L 761.53192,1898.2823 A 828.12124,828.12124 0 0 0 1779.3145,1778.7846 828.12124,828.12124 0 0 0 1839.648,676.51513 Z" />
  <path
     inkscape:connector-curvature="0"
     id="rect930-5-2-2"
     style="opacity:1;fill:#ffffff;fill-opacity:1;stroke:none;stroke-width:51.7103157;stroke-miterlimit:4;stroke-dasharray:none"
     d="M 871.75341,1302.3855 H 1432.244 c 22.279,0 40.2146,17.9408 40.2146,40.2162 v 103.0528 c 0,22.2753 -17.9356,40.2106 -40.2146,40.2106 H 871.75341 c -22.27889,0 -40.21461,-17.9353 -40.21461,-40.2106 v -103.0528 c 0,-22.2754 17.93572,-40.2162 40.21461,-40.2162 z m 0,-484.25394 H 1432.244 c 22.279,0 40.2146,17.93534 40.2146,40.21066 v 103.05281 c 0,22.2808 -17.9356,40.21617 -40.2146,40.21617 H 871.75341 c -22.27889,0 -40.21461,-17.93537 -40.21461,-40.21617 V 858.34222 c 0,-22.27532 17.93572,-40.21066 40.21461,-40.21066 z m 0,242.12974 H 1432.244 c 22.279,0 40.2146,17.9353 40.2146,40.2106 v 103.0529 c 0,22.2753 -17.9356,40.2106 -40.2146,40.2106 H 871.75341 c -22.27889,0 -40.21461,-17.9353 -40.21461,-40.2106 v -103.0529 c 0,-22.2753 17.93572,-40.2106 40.21461,-40.2106 z M 1130.8903,324.64964 A 828.1213,828.1213 0 0 0 566.4256,566.69169 828.1213,828.1213 0 0 0 506.09204,1668.9611 L 636.1982,1538.8546 A 645.37938,645.37938 0 0 1 695.63414,695.89951 645.37938,645.37938 0 0 1 1445.9142,579.25683 l -96.8655,96.89354 h 350.5768 V 325.54285 L 1580.2638,444.93637 A 828.1213,828.1213 0 0 0 1130.8903,324.64964 Z m 667.0152,310.91197 -130.1061,130.1065 A 645.37938,645.37938 0 0 1 1608.3635,1608.6287 645.37938,645.37938 0 0 1 853.94865,1723.2 l 99.66745,-99.6663 H 603.01209 v 350.5747 L 719.78937,1857.3342 A 828.12124,828.12124 0 0 0 1737.572,1737.8365 828.12124,828.12124 0 0 0 1797.9055,635.56161 Z" />
</svg>
